# xmcd CD database file
# Copyright (C) 1993-1998 Ti Kan
#
# Track frame offsets:
#	150
#	15455
#	29167
#	43200
#	55950
#	67135
#	80277
#	95600
#	108275
#	121972
#
# Disc length: 1845 seconds
#
# Revision: 1
# Processed by: cddbd v1.4b41PL1 Copyright (c) Steve Scherf et al.
# Submitted via: CDValet v3.31 - Copyright (c) 1997 Greg Leichner
#
DISCID=8707330a
DTITLE=Mac Davis - Stop And Smell The Roses
DYEAR=1900
DGENRE=
TTITLE0=Stop And Smell The Roses
TTITLE1=Soft, Sweet Fire
TTITLE2=The Sweetest Song
TTITLE3=Two Plus Two
TTITLE4=The Birthday Song
TTITLE5=One Hell Of A Woman
TTITLE6=A Poor Man's Gold
TTITLE7=Lucas Was A Redneck
TTITLE8=Kiss It And Make It Better
TTITLE9=Good Friends And Fireplaces
EXTD=
EXTT0=
EXTT1=
EXTT2=
EXTT3=
EXTT4=
EXTT5=
EXTT6=
EXTT7=
EXTT8=
EXTT9=
PLAYORDER=
